# xmcd
#
# Track frame offsets:
#	150
#	15084
#	28795
#	43096
#	61572
#	76051
#	88518
#	101989
#	115159
#	129120
#	142461
#
# Disc length: 2071 seconds
#
# Revision: 0
# Processed by: cddbd v1.5.1PL0 Copyright (c) Steve Scherf et al.
# Submitted via: dBpowerAMP V4.0
#
DISCID=8308150b
DTITLE=Merle Haggard - It's All In The Movies
DYEAR=1900
DGENRE=Country
TTITLE0=It's All In The Movies
TTITLE1=Nothing Worse Than Losing
TTITLE2=After Loving You
TTITLE3=Stingeree
TTITLE4=I Know An Ending When It Comes
TTITLE5=This Is The Song We Sing
TTITLE6=Living With The Shades Pulled Down
TTITLE7=Hags Dixie Blues #2
TTITLE8=Let's Stop Pretending
TTITLE9=Cotton Patch Blues
TTITLE10=The Seeker
EXTD=
EXTT0=
EXTT1=
EXTT2=
EXTT3=
EXTT4=
EXTT5=
EXTT6=
EXTT7=
EXTT8=
EXTT9=
EXTT10=
PLAYORDER=
